<?xml version="1.0" encoding="UTF-8"?><svg id="Layer_1" xmlns="http://www.w3.org/2000/svg" width="478.27" height="375.07" xmlns:xlink="http://www.w3.org/1999/xlink" viewBox="0 0 478.27 375.07"><defs><linearGradient id="linear-gradient" x1="47.71" y1="218.7" x2="317.38" y2="63" gradientUnits="userSpaceOnUse"><stop offset="0" stop-color="#34073d"/><stop offset=".31" stop-color="#6a1f45"/><stop offset="1" stop-color="#ef5c5c"/></linearGradient></defs><path d="M49.53,324.33h157.12v51.11H-.02V0l49.55-.66v324.98Z" style="fill:#fff;"/><path d="M118.37-1.95v58.97h-41.32V-1.95h41.32ZM118.37,97.81v199.97h-41.32V98.26l41.32-.44Z"/><path d="M190.97-1.95v299.73h-41.32V-1.95h41.32Z"/><path d="M263.57-1.95v299.73h-41.32V-1.95h41.32Z"/><path d="M118.37-1.95v58.97h-41.32V-1.95h41.32ZM118.37,97.81v199.97h-41.32V98.26l41.32-.44Z" style="fill:url(#linear-gradient);"/><path d="M190.97-1.95v299.73h-41.32V-1.95h41.32Z" style="fill:url(#linear-gradient);"/><path d="M263.57-1.95v299.73h-41.32V-1.95h41.32Z" style="fill:url(#linear-gradient);"/><path d="M420.45-1.93l57.85.66v376.34h-241.31v-51.23h183.46V-1.93Z" style="fill:#fff;"/><path d="M340.84,256.32h131.35v40.9h-172.77V-3.24l41.42-.52v260.09Z" style="fill:#fff;"/></svg>